<?xml version="1.0" encoding="utf-8"?>
<!-- Generator: Adobe Illustrator 19.0.1, SVG Export Plug-In . SVG Version: 6.00 Build 0)  -->
<!DOCTYPE svg PUBLIC "-//W3C//DTD SVG 1.1//EN" "http://www.w3.org/Graphics/SVG/1.1/DTD/svg11.dtd">
<svg version="1.1" id="Layer_1" xmlns="http://www.w3.org/2000/svg" xmlns:xlink="http://www.w3.org/1999/xlink" x="0px" y="0px"
	 viewBox="0 0 204 380" enable-background="new 0 0 204 380" xml:space="preserve">
<g>
	<path fill="#FFFFFF" d="M204,380H0V0h204V380z M4,376h196V4H4V376z"/>
</g>
<g>
	<g>
		<path fill="#FFFFFF" d="M23,186.7h11c5.8,0,10.8,2,10.8,8.7c0,4-2.1,7.1-6.2,7.8l7.3,12.1h-7.5l-6-11.4h-3.1v11.4H23V186.7z
			 M29.3,198.5H33c2.3,0,5.3-0.1,5.3-3.2c0-2.9-2.6-3.3-4.9-3.3h-4.1V198.5z"/>
	</g>
	<g>
		<path fill="#FFFFFF" d="M49,186.7h19.4v5.8H55.3v5.3h12.4v5.8H55.3v5.8h13.8v5.8H49V186.7z"/>
	</g>
	<g>
		<path fill="#FFFFFF" d="M92,194.1c-1.2-1.5-3.1-2.3-5.4-2.3c-4.8,0-8.3,3.9-8.3,9.2c0,5.3,3.5,9.2,8.1,9.2c2.5,0,4.6-1.1,5.9-3.1
			l5.2,3.9c-2.4,3.4-6.4,5-10.3,5c-8.9,0-15.4-5.8-15.4-15c0-9.2,6.5-15,15.4-15c3.2,0,7.2,1.1,9.6,4.2L92,194.1z"/>
	</g>
	<g>
		<path fill="#FFFFFF" d="M100.3,186.7h11c5.8,0,10.8,2,10.8,8.7c0,4-2.1,7.1-6.2,7.8l7.3,12.1h-7.5l-6-11.4h-3.1v11.4h-6.3V186.7z
			 M106.6,198.5h3.7c2.3,0,5.3-0.1,5.3-3.2c0-2.9-2.6-3.3-4.9-3.3h-4.1V198.5z"/>
	</g>
	<g>
		<path fill="#FFFFFF" d="M149.9,204.3c0,6.7-4.1,11.7-12,11.7c-7.9,0-12.1-5-12.1-11.7v-17.5h6.3V204c0,3.5,2.4,6.2,5.8,6.2
			c3.3,0,5.7-2.7,5.7-6.2v-17.3h6.3V204.3z"/>
	</g>
	<g>
		<path fill="#FFFFFF" d="M153.6,186.7h6.3v28.5h-6.3V186.7z"/>
	</g>
	<g>
		<path fill="#FFFFFF" d="M170.5,192.3h-8.1v-5.6H185v5.6h-8.1v23h-6.3V192.3z"/>
	</g>
</g>
<g>
	<g>
		<path fill="#FFFFFF" d="M38,32.2c0-2.1-0.5-3.7-2.8-3.7c-2.3,0-2.9,1.6-2.9,3.7v5.7c0,1.7,0.3,3.4,1.1,4.9l7.9,13.5
			c1.1,1.9,1.8,4.2,1.8,6.6v8.6c0,5.1-3,8-8,8c-5.5,0-8.1-2.5-8.1-8V64h5v7.1c0,2.6,1,4.1,3.2,4.1c2,0,3-1.5,3-4.1v-7.6
			c0-1.9-0.4-3.3-1.4-5.2l-7.3-12.7c-1.3-2.3-2.1-4.1-2.1-6.9v-6.5c0-5.3,2.8-8,7.8-8c5.6,0,7.8,2.6,7.8,7.6v6.9h-5V32.2z"/>
	</g>
	<g>
		<path fill="#FFFFFF" d="M51.6,24.8h13.1V29h-8.2v19.7h7.8v4.2h-7.8v21.8h8.2v4.2H51.6V24.8z"/>
	</g>
	<g>
		<path fill="#FFFFFF" d="M87.7,63.9H79l-2,15h-5l8-54.2h6.8l8,54.2h-5L87.7,63.9z M83.4,28.5h-0.2l-3.8,31.2h7.7L83.4,28.5z"/>
	</g>
	<g>
		<path fill="#FFFFFF" d="M104.2,29h-5.6v-4.2h16.1V29h-5.6v50h-5V29z"/>
	</g>
	<g>
		<path fill="#FFFFFF" d="M127.5,29h-5.6v-4.2H138V29h-5.6v50h-5V29z"/>
	</g>
	<g>
		<path fill="#FFFFFF" d="M146.2,24.8h5v50h8.2v4.2h-13.1V24.8z"/>
	</g>
	<g>
		<path fill="#FFFFFF" d="M167.8,24.8H181V29h-8.2v19.7h7.8v4.2h-7.8v21.8h8.2v4.2h-13.1V24.8z"/>
	</g>
</g>
<g>
	<g>
		<path fill="#FFFFFF" d="M36.3,102.8c0-2.1-0.5-3.7-2.8-3.7c-2.3,0-2.9,1.6-2.9,3.7v5.7c0,1.7,0.3,3.4,1.1,4.9l7.9,13.5
			c1.1,1.9,1.8,4.2,1.8,6.6v8.6c0,5.1-3,8-8,8c-5.5,0-8.1-2.5-8.1-8v-7.4h5v7.1c0,2.6,1,4.1,3.2,4.1c2,0,3-1.5,3-4.1v-7.6
			c0-1.9-0.4-3.3-1.4-5.2l-7.3-12.7c-1.3-2.3-2.1-4.1-2.1-6.9v-6.5c0-5.3,2.8-8,7.8-8c5.6,0,7.8,2.6,7.8,7.6v6.9h-5V102.8z"/>
	</g>
	<g>
		<path fill="#FFFFFF" d="M52.8,99.6h-5.6v-4.2h16.1v4.2h-5.6v50h-5V99.6z"/>
	</g>
	<g>
		<path fill="#FFFFFF" d="M81.4,134.5h-8.7l-2,15h-5l8-54.2h6.8l8,54.2h-5L81.4,134.5z M77.2,99.1H77l-3.8,31.2h7.7L77.2,99.1z"/>
	</g>
	<g>
		<path fill="#FFFFFF" d="M107,126.8c0-2.6-1.6-3.3-3.9-3.3h-3.3v26h-5V95.4h9.2c4.7,0,7.7,0.8,7.7,6.2v13.7c0,4.2-1.6,5.6-5.4,5.8
			v0.2c3.5,0.2,5.6,1.3,5.6,5v23.2H107V126.8z M103.1,119.3c2.3,0,3.7-0.7,3.7-3.9v-12.2c0-3.2-1.7-3.7-4.2-3.7h-2.8v19.7H103.1z"/>
	</g>
	<g>
		<path fill="#FFFFFF" d="M124.2,99.6h-5.6v-4.2h16.1v4.2h-5.6v50h-5V99.6z"/>
	</g>
	<g>
		<path fill="#FFFFFF" d="M153.8,95.4h5v46.9c0,6-4.5,7.7-8.8,7.7c-4.1,0-8.6-1.7-8.6-7.7V95.4h5v45.3c0,3.9,1.3,5.1,3.8,5.1
			c2.6,0,3.8-1.2,3.8-5.1V95.4z"/>
	</g>
	<g>
		<path fill="#FFFFFF" d="M166.6,95.4h7.9c6.4,0,8.3,2.1,8.3,8.3v13.3c0,6.2-1.9,8.3-8.3,8.3h-2.9v24.4h-5V95.4z M173.9,121
			c2.3,0,3.8-0.6,3.8-3.4V103c0-2.8-1.6-3.4-3.8-3.4h-2.4V121H173.9z"/>
	</g>
</g>
<g>
	<rect x="24" y="166" fill="#FFFFFF" width="160" height="4"/>
</g>
<g>
	<rect x="24" y="280" fill="#FFFFFF" width="160" height="4"/>
</g>
<g>
	<g>
		<path fill="#FFFFFF" d="M19.8,224h9.6l6.4,25.6h0.1l8.4-25.6h8.2l8.3,26.3h0.1l6.7-26.3h8.9l-11.7,40H57l-8.8-27.7H48L39.2,264
			h-7.6L19.8,224z"/>
	</g>
	<g>
		<path fill="#FFFFFF" d="M79.8,224H107v8.1H88.6v7.5h17.3v8.1H88.6v8.1H108v8.1H79.8V224z"/>
	</g>
	<g>
		<path fill="#FFFFFF" d="M115.3,224h27.2v8.1h-18.4v7.5h17.3v8.1h-17.3v8.1h19.4v8.1h-28.2V224z"/>
	</g>
	<g>
		<path fill="#FFFFFF" d="M150.8,224h8.8v16.6l15.5-16.6h11.5l-17.8,18.6l19.3,21.4h-12.3l-16.3-19v19h-8.8V224z"/>
	</g>
</g>
<g>
	<g>
		<path fill="#FFFFFF" d="M23.9,346.1l20.6-18.5c2.1-1.9,4.7-4.2,4.7-7.4c0-3.6-3.1-5.8-6.5-5.8c-4.1,0-6.6,2.9-6.9,6.8l-11.3-0.8
			c0.7-11,8.3-16.3,18.8-16.3c9.7,0,17.2,5.3,17.2,16c0,6.8-2.9,10.7-7,14.3l-16.1,13.9H61v9.9H23.9V346.1z"/>
	</g>
	<g>
		<path fill="#FFFFFF" d="M85.7,304c15.8,0,19.7,14.9,19.7,27.5s-4,27.5-19.7,27.5c-15.8,0-19.7-14.9-19.7-27.5S69.9,304,85.7,304z
			 M85.7,348.6c8.1,0,8.5-11.6,8.5-17.1s-0.4-17.1-8.5-17.1s-8.5,11.6-8.5,17.1S77.6,348.6,85.7,348.6z"/>
	</g>
	<g>
		<path fill="#FFFFFF" d="M125.5,317.5l-10.7,9.4l-6.4-7.3l17.3-14.6h10.5V358h-10.8V317.5z"/>
	</g>
	<g>
		<path fill="#FFFFFF" d="M182.3,314.8h-21.1L161,323c1.3-0.4,2.7-0.6,4.7-0.6c10.7,0,18.4,6.7,18.4,17.6c0,12-8.6,19-20.3,19
			c-9.2,0-15.6-4.6-17.9-13.6l11.8-2.7c0.6,3.8,3.4,6.4,7.3,6.4c4.8,0,7.9-3.4,7.9-8c0-7-6.4-8.8-12.2-8.8c-3.7,0-7.5,0.8-11,1.9
			l0.6-29.3h32.1V314.8z"/>
	</g>
</g>
</svg>
