<?xml version="1.0" encoding="utf-8"?>
<!-- Generator: Adobe Illustrator 19.0.1, SVG Export Plug-In . SVG Version: 6.00 Build 0)  -->
<!DOCTYPE svg PUBLIC "-//W3C//DTD SVG 1.1//EN" "http://www.w3.org/Graphics/SVG/1.1/DTD/svg11.dtd">
<svg version="1.1" id="Layer_1" xmlns="http://www.w3.org/2000/svg" xmlns:xlink="http://www.w3.org/1999/xlink" x="0px" y="0px"
	 viewBox="0 0 270.5 159.4" enable-background="new 0 0 270.5 159.4" xml:space="preserve">
<g>
	<path fill="#FFFFFF" d="M160.7,145.4v-0.5h1.7v6.2c0.6-0.7,1.5-1.4,2.6-1.4c0.8,0,1.3,0.3,1.6,0.7c0.3,0.4,0.4,0.9,0.4,1.5v3.9h1.1
		v0.5h-2.8v-0.5h1.1V152c0-0.5-0.1-1-0.3-1.3c-0.3-0.3-0.7-0.5-1.2-0.5c-1,0-1.8,0.6-2.5,1.4v4.1h1.1v0.5h-2.8v-0.5h1.1v-10.4H160.7
		z"/>
	<path fill="#FFFFFF" d="M173,154.7v-1.4c-0.6-0.2-1.3-0.3-2-0.3c-1.3,0-1.9,0.7-1.9,1.4c0,0.7,0.5,1.4,1.7,1.4
		C171.7,155.9,172.5,155.3,173,154.7 M168.5,154.5c0-1.2,1-2,2.4-2c0.8,0,1.6,0.2,2.1,0.4v-1.2c0-0.4-0.1-0.7-0.3-1
		c-0.3-0.3-0.8-0.6-1.5-0.6c-0.8,0-1.2,0.2-1.4,0.5c0.1,0.1,0.2,0.3,0.2,0.4c0,0.2-0.2,0.5-0.5,0.5c-0.3,0-0.5-0.2-0.5-0.5
		c0-0.6,0.8-1.4,2.3-1.4c0.9,0,1.5,0.3,1.9,0.7c0.3,0.3,0.5,0.8,0.5,1.3v4.1h1.1v0.5h-1.7v-1c-0.5,0.6-1.4,1.1-2.3,1.1
		C169.3,156.4,168.5,155.5,168.5,154.5"/>
	<path fill="#FFFFFF" d="M176.3,151.1c0.6-0.7,1.6-1.4,2.6-1.4c0.9,0,1.4,0.3,1.7,0.9c0.2,0.4,0.3,0.8,0.3,1.4v3.9h1.1v0.5h-2.8
		v-0.5h1.1V152c0-0.4,0-0.8-0.2-1.1c-0.2-0.5-0.7-0.7-1.3-0.7c-1,0-1.8,0.6-2.5,1.4v4.1h1.1v0.5h-2.8v-0.5h1.1v-5.5h-1.1v-0.5h1.7
		V151.1z"/>
	<path fill="#FFFFFF" d="M187.6,154.6v-3.5c-0.6-0.5-1.4-1-2.3-1c-1.5,0-2.6,1.2-2.6,2.9c0,1.7,1.1,2.8,2.5,2.8
		C186.2,155.8,187,155.3,187.6,154.6 M182.1,153c0-1.9,1.3-3.4,3.2-3.4c0.9,0,1.7,0.4,2.3,0.9v-5.2h-1.4v-0.5h1.9v10.9h1.1v0.5h-1.7
		v-1.1c-0.6,0.7-1.4,1.2-2.5,1.2C183.4,156.4,182.1,155,182.1,153"/>
	<path fill="#FFFFFF" d="M189.5,153.1c0-1.9,1.5-3.4,3.2-3.4c1.4,0,2.5,0.9,2.5,1.8c0,0.3-0.2,0.6-0.6,0.6c-0.2,0-0.5-0.1-0.5-0.5
		c0-0.2,0.1-0.4,0.4-0.5c-0.2-0.6-1-1-1.8-1c-1.3,0-2.6,1.1-2.6,2.9c0,1.6,1.2,2.8,2.8,2.8c0.7,0,1.4-0.2,2.1-0.7l0,0.6
		c-0.6,0.4-1.4,0.6-2.1,0.6C191,156.4,189.5,155,189.5,153.1"/>
	<path fill="#FFFFFF" d="M200,150.3c0,0.3-0.2,0.5-0.5,0.5c-0.3,0-0.5-0.2-0.5-0.5c-0.6,0.1-1.2,0.7-1.6,1.5v4h1.3v0.5h-3v-0.5h1.1
		v-5.5h-1.1v-0.5h1.7v1.5c0.5-0.9,1.3-1.6,2-1.6C199.8,149.6,200,149.9,200,150.3"/>
	<path fill="#FFFFFF" d="M204.8,154.7v-1.4c-0.6-0.2-1.3-0.3-2-0.3c-1.3,0-1.9,0.7-1.9,1.4c0,0.7,0.5,1.4,1.7,1.4
		C203.5,155.9,204.3,155.3,204.8,154.7 M200.3,154.5c0-1.2,1-2,2.4-2c0.8,0,1.6,0.2,2.1,0.4v-1.2c0-0.4-0.1-0.7-0.3-1
		c-0.3-0.3-0.8-0.6-1.5-0.6c-0.8,0-1.2,0.2-1.4,0.5c0.1,0.1,0.2,0.3,0.2,0.4c0,0.2-0.2,0.5-0.5,0.5c-0.3,0-0.5-0.2-0.5-0.5
		c0-0.6,0.8-1.4,2.3-1.4c0.9,0,1.5,0.3,1.9,0.7c0.3,0.3,0.5,0.8,0.5,1.3v4.1h1.1v0.5h-1.7v-1c-0.5,0.6-1.4,1.1-2.3,1.1
		C201.1,156.4,200.3,155.5,200.3,154.5"/>
	<path fill="#FFFFFF" d="M209.3,145.2c-0.3,0-0.5,0.1-0.7,0.3c-0.3,0.3-0.4,0.8-0.4,1.5v2.7h1.7v0.5h-1.7v5.5h1.3v0.5h-3v-0.5h1.1
		v-5.5h-1.2v-0.5h1.2v-2.5c0-0.9,0.2-1.6,0.6-2c0.3-0.3,0.7-0.5,1.2-0.5c0.5,0,0.9,0.2,0.9,0.7c0,0.3-0.2,0.5-0.5,0.5
		C209.5,145.8,209.3,145.6,209.3,145.2"/>
	<path fill="#FFFFFF" d="M210.9,155.6c-0.1-0.2-0.2-0.5-0.2-0.8v-4.6h-1.2v-0.5h1.2V148l0.6-0.2v1.9h2.1v0.5h-2.1v4.5
		c0,0.2,0,0.4,0.1,0.6c0.1,0.3,0.4,0.4,0.8,0.4c0.4,0,0.8-0.2,1.2-0.4l-0.1,0.6c-0.3,0.2-0.7,0.4-1.2,0.4
		C211.6,156.4,211.2,156.1,210.9,155.6"/>
	<path fill="#FFFFFF" d="M214.3,152.6h4.8c-0.1-1.3-0.8-2.4-2.3-2.4C215.5,150.2,214.5,151.1,214.3,152.6 M214.3,153.1
		c0.1,1.8,1.2,2.8,2.8,2.8c0.9,0,1.6-0.3,2.3-0.8l0,0.6c-0.6,0.4-1.4,0.7-2.3,0.7c-2,0-3.3-1.3-3.3-3.4c0-1.8,1.3-3.3,3.1-3.3
		c1.9,0,2.9,1.5,2.9,3c0,0.2,0,0.3,0,0.4H214.3z"/>
	<path fill="#FFFFFF" d="M226,154.6v-3.5c-0.6-0.5-1.4-1-2.3-1c-1.5,0-2.6,1.2-2.6,2.9c0,1.7,1.1,2.8,2.5,2.8
		C224.6,155.8,225.4,155.3,226,154.6 M220.5,153c0-1.9,1.3-3.4,3.2-3.4c0.9,0,1.7,0.4,2.3,0.9v-5.2h-1.4v-0.5h1.9v10.9h1.1v0.5h-1.7
		v-1.1c-0.6,0.7-1.4,1.2-2.5,1.2C221.8,156.4,220.5,155,220.5,153"/>
	<path fill="#FFFFFF" d="M238,154.6v-3.5c-0.6-0.5-1.4-1-2.3-1c-1.5,0-2.6,1.2-2.6,2.9c0,1.7,1.1,2.8,2.5,2.8
		C236.5,155.8,237.3,155.3,238,154.6 M232.4,153c0-1.9,1.3-3.4,3.2-3.4c0.9,0,1.7,0.4,2.3,0.9v-5.2h-1.4v-0.5h1.9v10.9h1.1v0.5H238
		v-1.1c-0.6,0.7-1.4,1.2-2.5,1.2C233.7,156.4,232.4,155,232.4,153"/>
	<path fill="#FFFFFF" d="M240.5,152.6h4.8c-0.1-1.3-0.8-2.4-2.3-2.4C241.6,150.2,240.6,151.1,240.5,152.6 M240.4,153.1
		c0.1,1.8,1.2,2.8,2.8,2.8c0.9,0,1.6-0.3,2.3-0.8l0,0.6c-0.6,0.4-1.4,0.7-2.3,0.7c-2,0-3.3-1.3-3.3-3.4c0-1.8,1.3-3.3,3.1-3.3
		c1.9,0,2.9,1.5,2.9,3c0,0.2,0,0.3,0,0.4H240.4z"/>
	<path fill="#FFFFFF" d="M250.9,151.5c-0.3,0-0.5-0.2-0.5-0.5c0-0.1,0-0.3,0.2-0.4c-0.3-0.3-0.9-0.4-1.5-0.4c-1.1,0-1.7,0.6-1.7,1.2
		c0,0.7,0.8,1,1.9,1.2c1.2,0.3,2.3,0.7,2.3,1.9c0,1.1-1,1.8-2.5,1.8c-1,0-1.8-0.3-2.2-0.8c-0.2-0.2-0.3-0.4-0.3-0.7
		c0-0.3,0.2-0.5,0.5-0.5c0.3,0,0.5,0.2,0.5,0.5c0,0.2-0.1,0.3-0.2,0.4c0.2,0.3,0.9,0.6,1.8,0.6c1.2,0,1.9-0.5,1.9-1.3
		c0-0.9-0.9-1.1-1.9-1.4c-1.3-0.3-2.3-0.6-2.3-1.8c0-1,1-1.7,2.3-1.7c0.9,0,1.6,0.3,2,0.7c0.2,0.2,0.3,0.4,0.3,0.6
		C251.4,151.2,251.1,151.5,250.9,151.5"/>
	<path fill="#FFFFFF" d="M253.1,147c0-0.3,0.3-0.6,0.6-0.6s0.6,0.3,0.6,0.6c0,0.3-0.3,0.6-0.6,0.6S253.1,147.3,253.1,147
		 M252.3,155.7h1.2v-5.5h-1.2v-0.5h1.8v6h1.2v0.5h-3V155.7z"/>
	<path fill="#FFFFFF" d="M256.5,153c0,1.6,1,2.8,2.6,2.8c1,0,1.8-0.5,2.4-1.2v-3.4c-0.6-0.5-1.3-1-2.3-1
		C257.6,150.2,256.5,151.4,256.5,153 M262.1,156.7c0,0.8-0.2,1.4-0.6,1.8c-0.5,0.6-1.4,0.9-2.4,0.9c-1,0-1.8-0.3-2.1-0.7
		c-0.2-0.2-0.3-0.4-0.3-0.6c0-0.4,0.3-0.6,0.6-0.6c0.3,0,0.5,0.2,0.5,0.5c0,0.2-0.1,0.3-0.2,0.5c0.2,0.2,0.8,0.5,1.7,0.5
		c0.8,0,1.5-0.2,1.9-0.7c0.3-0.3,0.4-0.8,0.4-1.4v-1.6c-0.6,0.6-1.4,1.1-2.4,1.1c-1.8,0-3.1-1.4-3.1-3.3c0-1.8,1.3-3.3,3.2-3.3
		c0.9,0,1.7,0.4,2.3,1v-0.9h1.7v0.5h-1.1V156.7z"/>
	<path fill="#FFFFFF" d="M264.8,151.1c0.6-0.7,1.6-1.4,2.6-1.4c0.9,0,1.4,0.3,1.7,0.9c0.2,0.4,0.3,0.8,0.3,1.4v3.9h1.1v0.5h-2.8
		v-0.5h1.1V152c0-0.4,0-0.8-0.2-1.1c-0.2-0.5-0.7-0.7-1.3-0.7c-1,0-1.8,0.6-2.5,1.4v4.1h1.1v0.5h-2.8v-0.5h1.1v-5.5h-1.1v-0.5h1.7
		V151.1z"/>
	<path fill="none" stroke="#FFFFFF" stroke-miterlimit="10" d="M25.2,105.6c1.1,4.8,3.2,8.9,5.1,13.9c-12.6-12.7-23.6-28.6-20-47.9
		C13,57.5,22,49.2,28,38c-1.2-5.6-2-10.4-1.7-14.1c-1.7,18-21.6,22.6-25.5,54.6c-2.3,19.2,8.6,41.6,41.5,49.6
		c-3.3-4.7-5.4-8.8-6.7-12.5C31.7,112.6,28.1,109.3,25.2,105.6"/>
	<path fill="none" stroke="#FFFFFF" stroke-miterlimit="10" d="M39.5,89.4c-1-20,13.5-35.5,6.8-54.2c0.4,9-3.1,13.9-7.7,18.2
		c-0.6,1.4-1.2,2.8-1.8,4.2c-1,2.2-2,4.3-2.8,6.3c0.6,3.3,1.2,6.8,1.6,10.3c2.1,18.2-5.2,26.8,0,41.4c13.5,10.7,29.7,16.8,29.7,16.8
		C45.5,118.2,40.5,109.4,39.5,89.4"/>
	<path fill="none" stroke="#FFFFFF" stroke-miterlimit="10" d="M35.6,74.2c-0.4-3.5-1-6.9-1.6-10.3c-9.8,22.4-10.8,33.1-8.8,41.6
		c3,3.7,6.6,7.1,10.4,10.1C30.4,101.1,37.7,92.4,35.6,74.2"/>
	<path fill="none" stroke="#FFFFFF" stroke-miterlimit="10" d="M38.7,53.4C52.7,19,33.6,3.5,23.2,0.5C27.7,2.8,35.3,10.6,33,24
		c-0.9,5.4-2.8,9.9-5,14.1c1.3,6,3.2,12.8,4.8,20.3C34.8,56.7,36.8,55.1,38.7,53.4"/>
	<path fill="none" stroke="#FFFFFF" stroke-miterlimit="10" d="M30.3,119.5c-1.9-5-4-9.1-5.1-13.9c-5.1-6.3-8.2-13.6-7.3-21.7
		c1.6-14,8.4-20.3,15-25.6C31.2,50.9,29.3,44,28,38c-6,11.2-15,19.4-17.6,33.5C6.7,90.9,17.7,106.8,30.3,119.5"/>
	<path fill="none" stroke="#FFFFFF" stroke-miterlimit="10" d="M34,64c0.9-2,1.8-4.1,2.8-6.3c0.7-1.4,1.3-2.8,1.8-4.2
		c-1.8,1.7-3.8,3.2-5.8,4.9C33.2,60.2,33.6,62,34,64"/>
	<path fill="none" stroke="#FFFFFF" stroke-miterlimit="10" d="M17.9,83.9c-0.9,8,2.3,15.3,7.3,21.7c-2-8.4-1-19.2,8.8-41.6
		c-0.4-1.9-0.8-3.8-1.2-5.7C26.3,63.6,19.4,69.9,17.9,83.9"/>
	<path fill="none" stroke="#FFFFFF" stroke-miterlimit="10" d="M68.9,81.2c-0.5-3.2-0.8-6.4-0.8-9.3c0-0.5,0-1,0-1.5
		c-7.3,3-11.8,8.3-14.7,17.2c-4.3-15.1,6-35.1,25.3-43.2c3.1-3.8,5.6-5.9,5.6-5.9s-24,3.5-33.5,19.2c-9.5,15.7-10.4,36.3,7,57.1
		c17.5,20.8,36.1,26.1,50.9,25.2c-11-5-20.4-14.8-27.4-26.2c0.5,6.4,2.4,12.6,5.3,17.2C71,121.9,63.5,98.5,68.9,81.2"/>
	<path fill="none" stroke="#FFFFFF" stroke-miterlimit="10" d="M77.3,68c-1.9,1.7-3.6,3.6-5,5.7c-1.5,2.3-2.6,4.8-3.4,7.5
		c1.7,10.5,6.1,22.2,12.5,32.6c-1-13,3.8-27,18.4-31.1c24-6.7,39.4,32,70.6,18.5c-13,0-17.9-6.5-22.7-14.6
		c-17.8-8.4-36.6-19-52.2-19.4C88.4,67,82.4,67.2,77.3,68"/>
	<path fill="none" stroke="#FFFFFF" stroke-miterlimit="10" d="M86.7,131c-2.9-4.6-4.8-10.7-5.3-17.2C75,103.4,70.6,91.7,68.9,81.2
		C63.5,98.5,71,121.9,86.7,131"/>
	<path fill="none" stroke="#FFFFFF" stroke-miterlimit="10" d="M153.8,73.7c-16.8-12-31.6-34.8-60.3-32.8
		c-5.4,0.4-10.3,1.6-14.8,3.4c-4.5,5.6-10.2,14.7-10.6,26c2.7-1.1,5.7-1.9,9.2-2.4c13.7-12,39.9-13.2,55.4-1.1
		c7.5,5.9,11.2,13.3,15,19.7c11.2,5.3,22,9.7,31.2,10.3c24,1.3,40.3-25.3,40.3-25.3C206.4,91,170.6,85.7,153.8,73.7"/>
	<path fill="none" stroke="#FFFFFF" stroke-miterlimit="10" d="M53.4,87.5c2.9-8.8,7.4-14.2,14.7-17.2c0.5-11.3,6.1-20.4,10.6-26
		C59.4,52.4,49.1,72.4,53.4,87.5"/>
	<path fill="none" stroke="#FFFFFF" stroke-miterlimit="10" d="M132.6,66.9C117.2,54.8,90.9,56,77.3,68c5.1-0.8,11.1-1,18.3-0.8
		c15.5,0.4,34.4,11,52.2,19.4C143.9,80.2,140.2,72.8,132.6,66.9"/>
	<path fill="none" stroke="#FFFFFF" stroke-miterlimit="10" d="M198.6,60.9c-13.8-10.7,11.8-30.8,23.3,0.8
		C221.5,39.6,209,31.5,197.5,33C184.2,34.7,174.8,57.7,198.6,60.9"/>
	<polygon fill="#FFFFFF" points="112.8,117.9 115.5,117.9 128.9,137.3 129,137.3 129,117.9 131.1,117.9 131.1,140.1 128.4,140.1 
		115,120.7 114.9,120.7 114.9,140.1 112.8,140.1 	"/>
	<path fill="#FFFFFF" d="M142.2,132.8c-3.1,0-6.2,0.8-6.2,3.2c0,1.8,1.7,2.7,3.3,2.7c4,0,5-2.6,5-5v-1H142.2z M145.9,134
		c0,2.8,0.1,4.4,0.3,6.1h-1.7c-0.1-0.7-0.2-1.5-0.2-2.3h-0.1c-1.1,1.8-2.6,2.7-5.1,2.7c-2.5,0-5.1-1.2-5.1-4.3c0-4.4,5.2-4.8,8-4.8
		h2.2v-0.9c0-2.5-1.7-3.5-4.1-3.5c-1.7,0-3.1,0.5-4.4,1.6l-1.1-1.3c1.4-1.3,3.6-2,5.5-2c3.5,0,5.7,1.6,5.7,5.2V134z"/>
	<path fill="#FFFFFF" d="M149.7,129.7c0-1.1-0.2-3.3-0.2-4.1h1.9c0,1.1,0.1,2.3,0.1,2.5h0.1c0.8-1.6,2.6-2.9,4.9-2.9
		c4.5,0,5.5,3.1,5.5,6.2v8.6h-1.9v-8.5c0-2.3-0.7-4.6-3.6-4.6c-2.8,0-5,1.9-5,5.9v7.2h-1.9V129.7z"/>
	<path fill="#FFFFFF" d="M165.5,125.6h1.9v14.4h-1.9V125.6z M166.4,118.5c0.8,0,1.4,0.6,1.4,1.4c0,0.8-0.6,1.4-1.4,1.4
		c-0.8,0-1.4-0.6-1.4-1.4C165,119.1,165.7,118.5,166.4,118.5"/>
	<path fill="#FFFFFF" d="M190.1,138.7c5.8,0,9.4-4.2,9.4-9.7c0-5.5-3.6-9.7-9.4-9.7c-5.8,0-9.4,4.2-9.4,9.7
		C180.7,134.5,184.3,138.7,190.1,138.7 M190.1,117.4c6.7,0,11.4,4.9,11.4,11.6c0,6.7-4.7,11.6-11.4,11.6c-6.7,0-11.4-4.9-11.4-11.6
		C178.6,122.3,183.3,117.4,190.1,117.4"/>
	<path fill="#FFFFFF" d="M203.4,137.2c0.8,0,1.5,0.7,1.5,1.5c0,0.8-0.7,1.5-1.5,1.5c-0.8,0-1.5-0.7-1.5-1.5
		C201.9,137.9,202.6,137.2,203.4,137.2"/>
	<path fill="#FFFFFF" d="M216.9,127.7h4.7c2.3,0,4.7-1,4.7-3.9c0-2.8-2.4-4-4.8-4h-4.6V127.7z M214.9,117.9h6.4
		c3.1,0,7.1,1.2,7.1,5.8c0,4-3.2,5.8-6.7,5.8h-4.8v10.5h-2.1V117.9z"/>
	<path fill="#FFFFFF" d="M230.4,129.7c0-1.1-0.2-3.3-0.2-4.1h1.9c0,1.1,0.1,2.3,0.1,2.5c0.9-1.7,2.4-2.9,4.6-2.9
		c0.4,0,0.7,0.1,1.1,0.2l-0.2,1.8c-0.3-0.1-0.5-0.1-0.7-0.1c-3.2,0-4.7,2.3-4.7,5.1v7.9h-1.9V129.7z"/>
	<path fill="#FFFFFF" d="M247,132.8c-3.1,0-6.2,0.8-6.2,3.2c0,1.8,1.7,2.7,3.3,2.7c4,0,5-2.6,5-5v-1H247z M250.8,134
		c0,2.8,0.1,4.4,0.3,6.1h-1.7c-0.1-0.7-0.2-1.5-0.2-2.3h-0.1c-1.1,1.8-2.6,2.7-5.1,2.7c-2.5,0-5.1-1.2-5.1-4.3c0-4.4,5.2-4.8,8-4.8
		h2.2v-0.9c0-2.5-1.7-3.5-4.1-3.5c-1.7,0-3.1,0.5-4.4,1.6l-1.1-1.3c1.4-1.3,3.6-2,5.5-2c3.5,0,5.7,1.6,5.7,5.2V134z"/>
	<path fill="#FFFFFF" d="M261.6,127.3h-4.1v9.4c0,1.3,0.8,2,2,2c0.7,0,1.5-0.2,2.1-0.5l0.2,1.7c-0.7,0.3-1.7,0.5-2.4,0.5
		c-2.7,0-3.7-1.7-3.7-3.7v-9.4h-3.1v-1.7h3.1v-4.2h1.9v4.2h4.1V127.3z"/>
	<path fill="#FFFFFF" d="M270.1,127.3H266v9.4c0,1.3,0.8,2,2,2c0.7,0,1.5-0.2,2.1-0.5l0.2,1.7c-0.7,0.3-1.7,0.5-2.4,0.5
		c-2.7,0-3.7-1.7-3.7-3.7v-9.4H261v-1.7h3.1v-4.2h1.9v4.2h4.1V127.3z"/>
</g>
</svg>
