<svg  xmlns="http://www.w3.org/2000/svg" xmlns:xlink="http://www.w3.org/1999/xlink" x="0px" y="0px"
	 viewBox="0 0 270 158.9" xml:space="preserve">
<g>
	<path fill="#404041" d="M160.2,144.9v-0.5h1.7v6.2c0.6-0.7,1.5-1.4,2.6-1.4c0.8,0,1.3,0.3,1.6,0.7c0.3,0.4,0.4,0.9,0.4,1.5v3.9h1.1
		v0.5h-2.8v-0.5h1.1v-3.8c0-0.5-0.1-1-0.3-1.3c-0.3-0.3-0.7-0.5-1.2-0.5c-1,0-1.8,0.6-2.5,1.4v4.1h1.1v0.5h-2.8v-0.5h1.1v-10.4
		H160.2z"/>
	<path fill="#404041" d="M172.5,154.2v-1.4c-0.6-0.2-1.3-0.3-2-0.3c-1.3,0-1.9,0.7-1.9,1.4c0,0.7,0.5,1.4,1.7,1.4
		C171.2,155.4,172,154.9,172.5,154.2 M168,154c0-1.2,1-2,2.4-2c0.8,0,1.6,0.2,2.1,0.4v-1.2c0-0.4-0.1-0.7-0.3-1
		c-0.3-0.3-0.8-0.6-1.5-0.6c-0.8,0-1.2,0.2-1.4,0.5c0.1,0.1,0.2,0.3,0.2,0.4c0,0.2-0.2,0.5-0.5,0.5c-0.3,0-0.5-0.2-0.5-0.5
		c0-0.6,0.8-1.4,2.3-1.4c0.9,0,1.5,0.3,1.9,0.7c0.3,0.3,0.5,0.8,0.5,1.3v4.1h1.1v0.5h-1.7v-1c-0.5,0.6-1.4,1.1-2.3,1.1
		C168.8,155.9,168,155.1,168,154"/>
	<path fill="#404041" d="M175.8,150.6c0.6-0.7,1.6-1.4,2.6-1.4c0.9,0,1.4,0.3,1.7,0.9c0.2,0.4,0.3,0.8,0.3,1.4v3.9h1.1v0.5h-2.8
		v-0.5h1.1v-3.8c0-0.4,0-0.8-0.2-1.1c-0.2-0.5-0.7-0.7-1.3-0.7c-1,0-1.8,0.6-2.5,1.4v4.1h1.1v0.5h-2.8v-0.5h1.1v-5.5h-1.1v-0.5h1.7
		V150.6z"/>
	<path fill="#404041" d="M187.1,154.2v-3.5c-0.6-0.5-1.4-1-2.3-1c-1.5,0-2.6,1.2-2.6,2.9c0,1.7,1.1,2.8,2.5,2.8
		C185.7,155.4,186.5,154.9,187.1,154.2 M181.6,152.6c0-1.9,1.3-3.4,3.2-3.4c0.9,0,1.7,0.4,2.3,0.9v-5.2h-1.4v-0.5h1.9v10.9h1.1v0.5
		h-1.7v-1.1c-0.6,0.7-1.4,1.2-2.5,1.2C182.9,155.9,181.6,154.5,181.6,152.6"/>
	<path fill="#404041" d="M189,152.6c0-1.9,1.5-3.4,3.2-3.4c1.4,0,2.5,0.9,2.5,1.8c0,0.3-0.2,0.6-0.6,0.6c-0.2,0-0.5-0.1-0.5-0.5
		c0-0.2,0.1-0.4,0.4-0.5c-0.2-0.6-1-1-1.8-1c-1.3,0-2.6,1.1-2.6,2.9c0,1.6,1.2,2.8,2.8,2.8c0.7,0,1.4-0.2,2.1-0.7l0,0.6
		c-0.6,0.4-1.4,0.6-2.1,0.6C190.5,155.9,189,154.5,189,152.6"/>
	<path fill="#404041" d="M199.5,149.8c0,0.3-0.2,0.5-0.5,0.5c-0.3,0-0.5-0.2-0.5-0.5c-0.6,0.1-1.2,0.7-1.6,1.5v4h1.3v0.5h-3v-0.5
		h1.1v-5.5h-1.1v-0.5h1.7v1.5c0.5-0.9,1.3-1.6,2-1.6C199.3,149.2,199.5,149.5,199.5,149.8"/>
	<path fill="#404041" d="M204.3,154.2v-1.4c-0.6-0.2-1.3-0.3-2-0.3c-1.3,0-1.9,0.7-1.9,1.4c0,0.7,0.5,1.4,1.7,1.4
		C203,155.4,203.8,154.9,204.3,154.2 M199.8,154c0-1.2,1-2,2.4-2c0.8,0,1.6,0.2,2.1,0.4v-1.2c0-0.4-0.1-0.7-0.3-1
		c-0.3-0.3-0.8-0.6-1.5-0.6c-0.8,0-1.2,0.2-1.4,0.5c0.1,0.1,0.2,0.3,0.2,0.4c0,0.2-0.2,0.5-0.5,0.5c-0.3,0-0.5-0.2-0.5-0.5
		c0-0.6,0.8-1.4,2.3-1.4c0.9,0,1.5,0.3,1.9,0.7c0.3,0.3,0.5,0.8,0.5,1.3v4.1h1.1v0.5h-1.7v-1c-0.5,0.6-1.4,1.1-2.3,1.1
		C200.6,155.9,199.8,155.1,199.8,154"/>
	<path fill="#404041" d="M208.8,144.8c-0.3,0-0.5,0.1-0.7,0.3c-0.3,0.3-0.4,0.8-0.4,1.5v2.7h1.7v0.5h-1.7v5.5h1.3v0.5h-3v-0.5h1.1
		v-5.5h-1.2v-0.5h1.2v-2.5c0-0.9,0.2-1.6,0.6-2c0.3-0.3,0.7-0.5,1.2-0.5c0.5,0,0.9,0.2,0.9,0.7c0,0.3-0.2,0.5-0.5,0.5
		C209,145.4,208.8,145.1,208.8,144.8"/>
	<path fill="#404041" d="M210.4,155.2c-0.1-0.2-0.2-0.5-0.2-0.8v-4.6h-1.2v-0.5h1.2v-1.7l0.6-0.2v1.9h2.1v0.5h-2.1v4.5
		c0,0.2,0,0.4,0.1,0.6c0.1,0.3,0.4,0.4,0.8,0.4c0.4,0,0.8-0.2,1.2-0.4l-0.1,0.6c-0.3,0.2-0.7,0.4-1.2,0.4
		C211.1,155.9,210.7,155.6,210.4,155.2"/>
	<path fill="#404041" d="M213.8,152.1h4.8c-0.1-1.3-0.8-2.4-2.3-2.4C215,149.7,214,150.7,213.8,152.1 M213.8,152.6
		c0.1,1.8,1.2,2.8,2.8,2.8c0.9,0,1.6-0.3,2.3-0.8l0,0.6c-0.6,0.4-1.4,0.7-2.3,0.7c-2,0-3.3-1.3-3.3-3.4c0-1.8,1.3-3.3,3.1-3.3
		c1.9,0,2.9,1.5,2.9,3c0,0.2,0,0.3,0,0.4H213.8z"/>
	<path fill="#404041" d="M225.5,154.2v-3.5c-0.6-0.5-1.4-1-2.3-1c-1.5,0-2.6,1.2-2.6,2.9c0,1.7,1.1,2.8,2.5,2.8
		C224.1,155.4,224.9,154.9,225.5,154.2 M220,152.6c0-1.9,1.3-3.4,3.2-3.4c0.9,0,1.7,0.4,2.3,0.9v-5.2h-1.4v-0.5h1.9v10.9h1.1v0.5
		h-1.7v-1.1c-0.6,0.7-1.4,1.2-2.5,1.2C221.3,155.9,220,154.5,220,152.6"/>
	<path fill="#404041" d="M237.5,154.2v-3.5c-0.6-0.5-1.4-1-2.3-1c-1.5,0-2.6,1.2-2.6,2.9c0,1.7,1.1,2.8,2.5,2.8
		C236,155.4,236.8,154.9,237.5,154.2 M231.9,152.6c0-1.9,1.3-3.4,3.2-3.4c0.9,0,1.7,0.4,2.3,0.9v-5.2h-1.4v-0.5h1.9v10.9h1.1v0.5
		h-1.7v-1.1c-0.6,0.7-1.4,1.2-2.5,1.2C233.2,155.9,231.9,154.5,231.9,152.6"/>
	<path fill="#404041" d="M240,152.1h4.8c-0.1-1.3-0.8-2.4-2.3-2.4C241.1,149.7,240.1,150.7,240,152.1 M239.9,152.6
		c0.1,1.8,1.2,2.8,2.8,2.8c0.9,0,1.6-0.3,2.3-0.8l0,0.6c-0.6,0.4-1.4,0.7-2.3,0.7c-2,0-3.3-1.3-3.3-3.4c0-1.8,1.3-3.3,3.1-3.3
		c1.9,0,2.9,1.5,2.9,3c0,0.2,0,0.3,0,0.4H239.9z"/>
	<path fill="#404041" d="M250.4,151c-0.3,0-0.5-0.2-0.5-0.5c0-0.1,0-0.3,0.2-0.4c-0.3-0.3-0.9-0.4-1.5-0.4c-1.1,0-1.7,0.6-1.7,1.2
		c0,0.7,0.8,1,1.9,1.2c1.2,0.3,2.3,0.7,2.3,1.9c0,1.1-1,1.8-2.5,1.8c-1,0-1.8-0.3-2.2-0.8c-0.2-0.2-0.3-0.4-0.3-0.7
		c0-0.3,0.2-0.5,0.5-0.5c0.3,0,0.5,0.2,0.5,0.5c0,0.2-0.1,0.3-0.2,0.4c0.2,0.3,0.9,0.6,1.8,0.6c1.2,0,1.9-0.5,1.9-1.3
		c0-0.9-0.9-1.1-1.9-1.4c-1.3-0.3-2.3-0.6-2.3-1.8c0-1,1-1.7,2.3-1.7c0.9,0,1.6,0.3,2,0.7c0.2,0.2,0.3,0.4,0.3,0.6
		C250.9,150.8,250.6,151,250.4,151"/>
	<path fill="#404041" d="M252.6,146.5c0-0.3,0.3-0.6,0.6-0.6s0.6,0.3,0.6,0.6c0,0.3-0.3,0.6-0.6,0.6S252.6,146.8,252.6,146.5
		 M251.8,155.3h1.2v-5.5h-1.2v-0.5h1.8v6h1.2v0.5h-3V155.3z"/>
	<path fill="#404041" d="M256,152.5c0,1.6,1,2.8,2.6,2.8c1,0,1.8-0.5,2.4-1.2v-3.4c-0.6-0.5-1.3-1-2.3-1
		C257.1,149.7,256,150.9,256,152.5 M261.6,156.2c0,0.8-0.2,1.4-0.6,1.8c-0.5,0.6-1.4,0.9-2.4,0.9c-1,0-1.8-0.3-2.1-0.7
		c-0.2-0.2-0.3-0.4-0.3-0.6c0-0.4,0.3-0.6,0.6-0.6c0.3,0,0.5,0.2,0.5,0.5c0,0.2-0.1,0.3-0.2,0.5c0.2,0.2,0.8,0.5,1.7,0.5
		c0.8,0,1.5-0.2,1.9-0.7c0.3-0.3,0.4-0.8,0.4-1.4v-1.6c-0.6,0.6-1.4,1.1-2.4,1.1c-1.8,0-3.1-1.4-3.1-3.3c0-1.8,1.3-3.3,3.2-3.3
		c0.9,0,1.7,0.4,2.3,1v-0.9h1.7v0.5h-1.1V156.2z"/>
	<path fill="#404041" d="M264.3,150.6c0.6-0.7,1.6-1.4,2.6-1.4c0.9,0,1.4,0.3,1.7,0.9c0.2,0.4,0.3,0.8,0.3,1.4v3.9h1.1v0.5h-2.8
		v-0.5h1.1v-3.8c0-0.4,0-0.8-0.2-1.1c-0.2-0.5-0.7-0.7-1.3-0.7c-1,0-1.8,0.6-2.5,1.4v4.1h1.1v0.5h-2.8v-0.5h1.1v-5.5h-1.1v-0.5h1.7
		V150.6z"/>
	<path fill="#40276A" d="M24.7,105.1c1.1,4.8,3.2,8.9,5.1,13.9c-12.6-12.7-23.6-28.6-20-47.9C12.5,57,21.5,48.7,27.5,37.6
		c-1.2-5.6-2-10.4-1.7-14.1c-1.7,18-21.6,22.6-25.5,54.6c-2.3,19.2,8.6,41.6,41.5,49.6c-3.3-4.7-5.4-8.8-6.7-12.5
		C31.2,112.2,27.6,108.8,24.7,105.1"/>
	<path fill="#B61F45" d="M39,89c-1-20,13.5-35.5,6.8-54.2c0.4,9-3.1,13.9-7.7,18.2c-0.6,1.4-1.2,2.8-1.8,4.2c-1,2.2-2,4.3-2.8,6.3
		c0.6,3.3,1.2,6.8,1.6,10.3c2.1,18.2-5.2,26.8,0,41.4C48.6,125.8,64.8,132,64.8,132C45,117.8,40,108.9,39,89"/>
	<path fill="#801629" d="M35.1,73.7c-0.4-3.5-1-6.9-1.6-10.3c-9.8,22.4-10.8,33.1-8.8,41.6c3,3.7,6.6,7.1,10.4,10.1
		C29.9,100.6,37.2,91.9,35.1,73.7"/>
	<path fill="#F1A32E" d="M38.2,52.9C52.2,18.5,33.1,3,22.7,0c4.5,2.3,12.1,10.2,9.8,23.5c-0.9,5.4-2.8,9.9-5,14.1
		c1.3,6,3.2,12.8,4.8,20.3C34.3,56.2,36.3,54.6,38.2,52.9"/>
	<path fill="#724198" d="M29.8,119c-1.9-5-4-9.1-5.1-13.9c-5.1-6.3-8.2-13.6-7.3-21.7c1.6-14,8.4-20.3,15-25.6
		c-1.6-7.4-3.5-14.3-4.8-20.3c-6,11.2-15,19.4-17.6,33.5C6.2,90.4,17.2,106.4,29.8,119"/>
	<path fill="#F16522" d="M33.5,63.5c0.9-2,1.8-4.1,2.8-6.3c0.7-1.4,1.3-2.8,1.8-4.2c-1.8,1.7-3.8,3.2-5.8,4.9
		C32.7,59.7,33.1,61.6,33.5,63.5"/>
	<path fill="#5A80C0" d="M17.4,83.4c-0.9,8,2.3,15.3,7.3,21.7c-2-8.4-1-19.2,8.8-41.6c-0.4-1.9-0.8-3.8-1.2-5.7
		C25.8,63.1,18.9,69.4,17.4,83.4"/>
	<path fill="#F1A32E" d="M68.4,80.7c-0.5-3.2-0.8-6.4-0.8-9.3c0-0.5,0-1,0-1.5c-7.3,3-11.8,8.3-14.7,17.2
		c-4.3-15.1,6-35.1,25.3-43.2c3.1-3.8,5.6-5.9,5.6-5.9s-24,3.5-33.5,19.2c-9.5,15.7-10.4,36.3,7,57.1c17.5,20.8,36.1,26.1,50.9,25.2
		c-11-5-20.4-14.8-27.4-26.2c0.5,6.4,2.4,12.6,5.3,17.2C70.5,121.4,63,98,68.4,80.7"/>
	<path fill="#40276A" d="M76.8,67.5c-1.9,1.7-3.6,3.6-5,5.7c-1.5,2.3-2.6,4.8-3.4,7.5c1.7,10.5,6.1,22.2,12.5,32.6
		c-1-13,3.8-27,18.4-31.1c24-6.7,39.4,32,70.6,18.5c-13,0-17.9-6.5-22.7-14.6c-17.8-8.4-36.6-19-52.2-19.4
		C87.9,66.6,81.9,66.8,76.8,67.5"/>
	<path fill="#724198" d="M86.2,130.5c-2.9-4.6-4.8-10.7-5.3-17.2c-6.4-10.4-10.8-22.1-12.5-32.6C63,98,70.5,121.4,86.2,130.5"/>
	<path fill="#B61F45" d="M153.3,73.2c-16.8-12-31.6-34.8-60.3-32.8c-5.4,0.4-10.3,1.6-14.8,3.4c-4.5,5.6-10.2,14.7-10.6,26
		c2.7-1.1,5.7-1.9,9.2-2.4c13.7-12,39.9-13.2,55.4-1.1c7.5,5.9,11.2,13.3,15,19.7c11.2,5.3,22,9.7,31.2,10.3
		c24,1.3,40.3-25.3,40.3-25.3C205.9,90.6,170.1,85.2,153.3,73.2"/>
	<path fill="#F16522" d="M52.9,87.1c2.9-8.8,7.4-14.2,14.7-17.2c0.5-11.3,6.1-20.4,10.6-26C58.9,51.9,48.6,71.9,52.9,87.1"/>
	<path fill="#801629" d="M132.1,66.4c-15.4-12.1-41.7-10.9-55.4,1.1c5.1-0.8,11.1-1,18.3-0.8c15.5,0.4,34.4,11,52.2,19.4
		C143.4,79.7,139.7,72.3,132.1,66.4"/>
	<path fill="#5A80C0" d="M198.1,60.4c-13.8-10.7,11.8-30.8,23.3,0.8C221,39.1,208.5,31,197,32.5C183.7,34.3,174.3,57.2,198.1,60.4"
		/>
	<polygon fill="#404041" points="112.3,117.5 115,117.5 128.4,136.8 128.5,136.8 128.5,117.5 130.6,117.5 130.6,139.6 127.9,139.6 
		114.5,120.2 114.4,120.2 114.4,139.6 112.3,139.6 	"/>
	<path fill="#404041" d="M141.7,132.3c-3.1,0-6.2,0.8-6.2,3.2c0,1.8,1.7,2.7,3.3,2.7c4,0,5-2.6,5-5v-1H141.7z M145.4,133.5
		c0,2.8,0.1,4.4,0.3,6.1H144c-0.1-0.7-0.2-1.5-0.2-2.3h-0.1c-1.1,1.8-2.6,2.7-5.1,2.7c-2.5,0-5.1-1.2-5.1-4.3c0-4.4,5.2-4.8,8-4.8
		h2.2V130c0-2.5-1.7-3.5-4.1-3.5c-1.7,0-3.1,0.5-4.4,1.6l-1.1-1.3c1.4-1.3,3.6-2,5.5-2c3.5,0,5.7,1.6,5.7,5.2V133.5z"/>
	<path fill="#404041" d="M149.2,129.2c0-1.1-0.2-3.3-0.2-4.1h1.9c0,1.1,0.1,2.3,0.1,2.5h0.1c0.8-1.6,2.6-2.9,4.9-2.9
		c4.5,0,5.5,3.1,5.5,6.2v8.6h-1.9v-8.5c0-2.3-0.7-4.6-3.6-4.6c-2.8,0-5,1.9-5,5.9v7.2h-1.9V129.2z"/>
	<path fill="#404041" d="M165,125.1h1.9v14.4H165V125.1z M165.9,118c0.8,0,1.4,0.6,1.4,1.4s-0.6,1.4-1.4,1.4c-0.8,0-1.4-0.6-1.4-1.4
		S165.2,118,165.9,118"/>
	<path fill="#404041" d="M189.6,138.3c5.8,0,9.4-4.2,9.4-9.7s-3.6-9.7-9.4-9.7c-5.8,0-9.4,4.2-9.4,9.7S183.8,138.3,189.6,138.3
		 M189.6,116.9c6.7,0,11.4,4.9,11.4,11.6s-4.7,11.6-11.4,11.6c-6.7,0-11.4-4.9-11.4-11.6S182.8,116.9,189.6,116.9"/>
	<path fill="#404041" d="M202.9,136.8c0.8,0,1.5,0.7,1.5,1.5c0,0.8-0.7,1.5-1.5,1.5c-0.8,0-1.5-0.7-1.5-1.5
		C201.4,137.4,202.1,136.8,202.9,136.8"/>
	<path fill="#404041" d="M216.4,127.2h4.7c2.3,0,4.7-1,4.7-3.9c0-2.8-2.4-4-4.8-4h-4.6V127.2z M214.4,117.5h6.4
		c3.1,0,7.1,1.2,7.1,5.8c0,4-3.2,5.8-6.7,5.8h-4.8v10.5h-2.1V117.5z"/>
	<path fill="#404041" d="M229.9,129.2c0-1.1-0.2-3.3-0.2-4.1h1.9c0,1.1,0.1,2.3,0.1,2.5c0.9-1.7,2.4-2.9,4.6-2.9
		c0.4,0,0.7,0.1,1.1,0.2l-0.2,1.8c-0.3-0.1-0.5-0.1-0.7-0.1c-3.2,0-4.7,2.3-4.7,5.1v7.9h-1.9V129.2z"/>
	<path fill="#404041" d="M246.5,132.3c-3.1,0-6.2,0.8-6.2,3.2c0,1.8,1.7,2.7,3.3,2.7c4,0,5-2.6,5-5v-1H246.5z M250.3,133.5
		c0,2.8,0.1,4.4,0.3,6.1h-1.7c-0.1-0.7-0.2-1.5-0.2-2.3h-0.1c-1.1,1.8-2.6,2.7-5.1,2.7c-2.5,0-5.1-1.2-5.1-4.3c0-4.4,5.2-4.8,8-4.8
		h2.2V130c0-2.5-1.7-3.5-4.1-3.5c-1.7,0-3.1,0.5-4.4,1.6l-1.1-1.3c1.4-1.3,3.6-2,5.5-2c3.5,0,5.7,1.6,5.7,5.2V133.5z"/>
	<path fill="#404041" d="M261.1,126.8H257v9.4c0,1.3,0.8,2,2,2c0.7,0,1.5-0.2,2.1-0.5l0.2,1.7c-0.7,0.3-1.7,0.5-2.4,0.5
		c-2.7,0-3.7-1.7-3.7-3.7v-9.4H252v-1.7h3.1V121h1.9v4.2h4.1V126.8z"/>
	<path fill="#404041" d="M269.6,126.8h-4.1v9.4c0,1.3,0.8,2,2,2c0.7,0,1.5-0.2,2.1-0.5l0.2,1.7c-0.7,0.3-1.7,0.5-2.4,0.5
		c-2.7,0-3.7-1.7-3.7-3.7v-9.4h-3.1v-1.7h3.1V121h1.9v4.2h4.1V126.8z"/>
</g>
</svg>
